<svg width="352" height="90" viewBox="0 0 352 90" fill="none" xmlns="http://www.w3.org/2000/svg">
<path d="M109.115 61.3847V67.5421H108V61.3847H109.115Z" fill="black"/>
<path d="M121.951 67.5421H120.76L122.928 61.3847H124.305L126.476 67.5421H125.285L123.641 62.6475H123.593L121.951 67.5421ZM121.99 65.1278H125.237V66.0238H121.99V65.1278Z" fill="black"/>
<path d="M154.407 63.0774C154.379 62.8148 154.261 62.6104 154.052 62.4641C153.846 62.3177 153.577 62.2446 153.247 62.2446C153.014 62.2446 152.815 62.2797 152.648 62.3498C152.482 62.42 152.355 62.5152 152.267 62.6354C152.178 62.7557 152.133 62.893 152.131 63.0473C152.131 63.1756 152.16 63.2868 152.218 63.381C152.279 63.4753 152.36 63.5554 152.462 63.6216C152.564 63.6857 152.677 63.7398 152.802 63.7839C152.926 63.828 153.051 63.8651 153.178 63.8952L153.755 64.0395C153.987 64.0936 154.211 64.1668 154.425 64.259C154.642 64.3512 154.835 64.4674 155.006 64.6077C155.178 64.748 155.314 64.9174 155.414 65.1158C155.515 65.3142 155.565 65.5468 155.565 65.8133C155.565 66.1741 155.473 66.4918 155.288 66.7664C155.104 67.039 154.837 67.2525 154.488 67.4068C154.142 67.5591 153.722 67.6353 153.229 67.6353C152.75 67.6353 152.334 67.5611 151.981 67.4128C151.63 67.2645 151.356 67.048 151.157 66.7634C150.961 66.4788 150.855 66.132 150.838 65.7231H151.936C151.952 65.9376 152.018 66.116 152.134 66.2583C152.251 66.4006 152.402 66.5068 152.588 66.577C152.777 66.6471 152.987 66.6822 153.22 66.6822C153.462 66.6822 153.675 66.6461 153.857 66.574C154.041 66.4998 154.186 66.3976 154.29 66.2673C154.394 66.135 154.447 65.9807 154.449 65.8043C154.447 65.644 154.4 65.5117 154.308 65.4075C154.216 65.3012 154.087 65.213 153.92 65.1429C153.756 65.0707 153.563 65.0066 153.343 64.9505L152.642 64.7701C152.135 64.6398 151.734 64.4424 151.44 64.1778C151.147 63.9112 151.001 63.5574 151.001 63.1165C151.001 62.7537 151.099 62.436 151.295 62.1634C151.494 61.8908 151.763 61.6793 152.104 61.529C152.445 61.3767 152.831 61.3005 153.262 61.3005C153.699 61.3005 154.082 61.3767 154.41 61.529C154.741 61.6793 155.001 61.8888 155.189 62.1574C155.377 62.424 155.475 62.7306 155.481 63.0774H154.407Z" fill="black"/>
<path d="M167.396 67.5421V61.3847H171.401V62.3197H168.512V63.9914H171.193V64.9264H168.512V66.6071H171.425V67.5421H167.396Z" fill="black"/>
<path d="M183.376 67.5421V61.3847H185.685C186.158 61.3847 186.555 61.4669 186.875 61.6312C187.198 61.7956 187.442 62.0261 187.606 62.3227C187.772 62.6174 187.856 62.9611 187.856 63.354C187.856 63.7488 187.771 64.0916 187.603 64.3822C187.437 64.6709 187.191 64.8943 186.866 65.0527C186.542 65.209 186.143 65.2872 185.67 65.2872H184.025V64.3612H185.52C185.796 64.3612 186.023 64.3231 186.199 64.2469C186.375 64.1688 186.506 64.0555 186.59 63.9072C186.676 63.7569 186.719 63.5725 186.719 63.354C186.719 63.1355 186.676 62.9491 186.59 62.7948C186.504 62.6384 186.372 62.5202 186.196 62.44C186.02 62.3578 185.792 62.3167 185.513 62.3167H184.491V67.5421H183.376ZM186.557 64.752L188.081 67.5421H186.836L185.339 64.752H186.557Z" fill="black"/>
<path d="M200.386 61.3847L201.989 66.2312H202.052L203.651 61.3847H204.878L202.707 67.5421H201.33L199.162 61.3847H200.386Z" fill="black"/>
<path d="M217.641 61.3847V67.5421H216.526V61.3847H217.641Z" fill="black"/>
<path d="M234.957 63.4622H233.832C233.8 63.2778 233.741 63.1145 233.655 62.9722C233.569 62.8278 233.461 62.7056 233.333 62.6054C233.205 62.5051 233.058 62.43 232.894 62.3799C232.732 62.3278 232.556 62.3017 232.368 62.3017C232.033 62.3017 231.737 62.3859 231.478 62.5542C231.219 62.7206 231.017 62.9651 230.871 63.2878C230.724 63.6085 230.651 64.0004 230.651 64.4634C230.651 64.9344 230.724 65.3313 230.871 65.654C231.019 65.9747 231.221 66.2172 231.478 66.3816C231.737 66.5439 232.032 66.6251 232.365 66.6251C232.549 66.6251 232.722 66.601 232.882 66.5529C233.044 66.5028 233.19 66.4297 233.318 66.3335C233.448 66.2373 233.558 66.119 233.646 65.9787C233.736 65.8384 233.798 65.678 233.832 65.4976L234.957 65.5037C234.914 65.7963 234.823 66.0709 234.683 66.3275C234.545 66.584 234.363 66.8105 234.139 67.0069C233.914 67.2014 233.652 67.3537 233.351 67.4639C233.05 67.5722 232.717 67.6263 232.35 67.6263C231.809 67.6263 231.326 67.501 230.901 67.2505C230.476 66.9999 230.141 66.6381 229.897 66.1651C229.652 65.6921 229.53 65.1248 229.53 64.4634C229.53 63.8 229.653 63.2327 229.9 62.7617C230.146 62.2887 230.482 61.9269 230.907 61.6763C231.332 61.4258 231.813 61.3005 232.35 61.3005C232.693 61.3005 233.011 61.3486 233.306 61.4448C233.601 61.541 233.863 61.6824 234.094 61.8688C234.324 62.0532 234.514 62.2797 234.662 62.5482C234.812 62.8148 234.91 63.1195 234.957 63.4622Z" fill="black"/>
<path d="M246.815 67.5421V61.3847H250.82V62.3197H247.93V63.9914H250.612V64.9264H247.93V66.6071H250.844V67.5421H246.815Z" fill="black"/>
<path d="M266.141 63.0774C266.113 62.8148 265.995 62.6104 265.786 62.4641C265.58 62.3177 265.311 62.2446 264.98 62.2446C264.748 62.2446 264.549 62.2797 264.382 62.3498C264.216 62.42 264.089 62.5152 264 62.6354C263.912 62.7557 263.867 62.893 263.865 63.0473C263.865 63.1756 263.894 63.2868 263.952 63.381C264.012 63.4753 264.094 63.5554 264.196 63.6216C264.298 63.6857 264.411 63.7398 264.536 63.7839C264.66 63.828 264.785 63.8651 264.911 63.8952L265.489 64.0395C265.721 64.0936 265.945 64.1668 266.159 64.259C266.376 64.3512 266.569 64.4674 266.739 64.6077C266.912 64.748 267.048 64.9174 267.148 65.1158C267.248 65.3142 267.299 65.5468 267.299 65.8133C267.299 66.1741 267.206 66.4918 267.022 66.7664C266.838 67.039 266.571 67.2525 266.222 67.4068C265.875 67.5591 265.456 67.6353 264.962 67.6353C264.483 67.6353 264.067 67.5611 263.715 67.4128C263.364 67.2645 263.089 67.048 262.891 66.7634C262.695 66.4788 262.588 66.132 262.572 65.7231H263.67C263.686 65.9376 263.752 66.116 263.868 66.2583C263.984 66.4006 264.136 66.5068 264.322 66.577C264.51 66.6471 264.721 66.6822 264.953 66.6822C265.196 66.6822 265.408 66.6461 265.591 66.574C265.775 66.4998 265.92 66.3976 266.024 66.2673C266.128 66.135 266.181 65.9807 266.183 65.8043C266.181 65.644 266.134 65.5117 266.042 65.4075C265.95 65.3012 265.82 65.213 265.654 65.1429C265.49 65.0707 265.297 65.0066 265.077 64.9505L264.376 64.7701C263.869 64.6398 263.468 64.4424 263.174 64.1778C262.881 63.9112 262.735 63.5574 262.735 63.1165C262.735 62.7537 262.833 62.436 263.029 62.1634C263.228 61.8908 263.497 61.6793 263.838 61.529C264.179 61.3767 264.565 61.3005 264.996 61.3005C265.432 61.3005 265.815 61.3767 266.144 61.529C266.475 61.6793 266.734 61.8888 266.923 62.1574C267.111 62.424 267.208 62.7306 267.214 63.0774H266.141Z" fill="black"/>
<path d="M337.619 46.4798H351.563V52.5706H331.484V29.873H337.619V46.4798Z" fill="black"/>
<path d="M300.057 52.5707L313.588 29.873L327.119 52.5707H319.699L313.588 42.297L307.477 52.5707H300.057Z" fill="black"/>
<path d="M296.565 48.6076C295.456 49.8303 294.121 50.7965 292.558 51.5062C291.006 52.2158 289.326 52.5706 287.519 52.5706C285.324 52.5706 283.323 52.063 281.516 51.0476C279.72 50.0214 278.285 48.6512 277.21 46.9372C276.145 45.2122 275.613 43.3071 275.613 41.2218C275.613 39.1366 276.145 37.2369 277.21 35.5228C278.285 33.7979 279.72 32.4277 281.516 31.4124C283.323 30.3861 285.324 29.873 287.519 29.873C289.326 29.873 291.006 30.2278 292.558 30.9375C294.121 31.6471 295.456 32.6133 296.565 33.8361L291.959 38.356C291.482 37.6354 290.856 37.0622 290.08 36.6364C289.304 36.2106 288.45 35.9978 287.519 35.9978C286.056 35.9978 284.803 36.5109 283.761 37.5371C282.73 38.5525 282.215 39.7807 282.215 41.2218C282.215 42.6629 282.73 43.8966 283.761 44.9229C284.803 45.9491 286.056 46.4623 287.519 46.4623C288.45 46.4623 289.304 46.2494 290.08 45.8236C290.856 45.3869 291.482 44.8082 291.959 44.0877L296.565 48.6076Z" fill="black"/>
<path d="M264.265 52.5706V29.873H270.376V52.5706H264.265Z" fill="black"/>
<path d="M245.955 46.4798H259.899V52.5706H239.82V29.873H245.955V46.4798Z" fill="black"/>
<path d="M222.798 29C225.126 29 227.249 29.5329 229.168 30.5986C231.086 31.653 232.611 33.0758 233.743 34.8672C234.885 36.6471 235.456 38.6199 235.456 40.7853C235.456 42.9508 234.885 44.9292 233.743 46.7205C232.611 48.5005 231.086 49.9233 229.168 50.9891C227.249 52.0435 225.126 52.5707 222.798 52.5707C220.47 52.5707 218.347 52.0435 216.428 50.9891C214.51 49.9233 212.98 48.5005 211.837 46.7205C210.705 44.9292 210.14 42.9508 210.14 40.7853C210.14 38.6199 210.705 36.6471 211.837 34.8672C212.98 33.0758 214.51 31.653 216.428 30.5986C218.347 29.5329 220.47 29 222.798 29ZM222.798 35.3603C221.235 35.3603 219.904 35.8932 218.805 36.9589C217.706 38.0133 217.156 39.2888 217.156 40.7853C217.156 42.2819 217.706 43.563 218.805 44.6287C219.904 45.6945 221.235 46.2273 222.798 46.2273C224.361 46.2273 225.692 45.6945 226.791 44.6287C227.89 43.563 228.44 42.2819 228.44 40.7853C228.44 39.2888 227.89 38.0133 226.791 36.9589C225.692 35.8932 224.361 35.3603 222.798 35.3603Z" fill="black"/>
<path d="M200.165 29.9383C201.318 29.9601 202.312 30.2486 203.149 30.8038C203.986 31.3481 204.633 32.0284 205.09 32.8449C205.546 33.6614 205.775 34.4506 205.775 35.2127C205.775 37.0633 205.487 38.4894 204.91 39.4909C204.345 40.4816 203.519 41.0803 202.432 41.2871C203.258 41.6246 203.894 42.1254 204.34 42.7894C204.785 43.4535 205.09 44.1937 205.253 45.0102C205.427 45.8158 205.514 46.5778 205.514 47.2963C205.514 48.9401 205.084 50.2301 204.226 51.1663C203.378 52.0917 202.024 52.5598 200.165 52.5706H181.331V29.873L200.165 29.9383ZM199.219 45.4021C199.219 45.1191 199.116 44.8687 198.91 44.651C198.692 44.4441 198.442 44.3407 198.159 44.3407C195.279 44.3407 191.74 44.3407 187.544 44.3407V46.4798H198.159C198.442 46.4798 198.692 46.371 198.91 46.1533C199.116 45.9355 199.219 45.6851 199.219 45.4021ZM199.219 37.1068C199.219 36.7911 199.105 36.5244 198.877 36.3067C198.66 36.089 198.399 35.9801 198.094 35.9801H187.544V38.2336H198.094C198.399 38.2336 198.66 38.1247 198.877 37.907C199.105 37.6893 199.219 37.4225 199.219 37.1068Z" fill="black"/>
<path d="M121.709 29.8894C121.925 29.8784 122.152 29.873 122.389 29.873C122.616 29.873 122.842 29.8784 123.069 29.8894C125.313 30.0204 127.337 30.599 129.139 31.6253C130.941 32.6515 132.376 34.0053 133.444 35.6866C134.523 37.357 135.063 39.2021 135.063 41.2218C135.063 43.3071 134.491 45.2122 133.347 46.9372C132.203 48.6512 130.671 50.0214 128.75 51.0476C126.84 52.063 124.72 52.5706 122.389 52.5706C121.925 52.5706 121.472 52.5488 121.03 52.5051H108V29.8894H121.709ZM121.499 36.0469H115.025V46.5114H123.069V46.4131C124.504 46.2275 125.691 45.6544 126.63 44.6936C127.569 43.7219 128.038 42.5647 128.038 41.2218C128.038 39.7807 127.482 38.5525 126.371 37.5371C125.27 36.5109 123.943 35.9978 122.389 35.9978C122.087 35.9978 121.79 36.0141 121.499 36.0469Z" fill="black"/>
<path d="M149.903 52.5707L163.435 29.873L170.2 41.2218L176.966 52.5707H169.546L163.435 42.297L157.324 52.5707H149.903Z" fill="black"/>
<path d="M139.428 52.5706V29.873H145.539V52.5706H139.428Z" fill="black"/>
<path d="M48.5227 89.6902C35.0512 89.6902 21.5737 89.5579 8.10525 89.7594C3.17782 89.8375 -0.0209413 86.4854 0.000103211 81.6181C0.105326 57.1073 0.0451986 32.5965 0.0542177 8.0856C0.0542177 2.60802 2.65171 0.00450954 8.11427 0.00450954C35.0603 -0.00150318 62.0063 -0.00150318 88.9523 0.00450954C94.033 0.00450954 96.5734 2.5539 96.5764 7.65269C96.5854 32.5694 96.5553 57.4861 96.6215 82.4028C96.6305 85.316 95.3227 88.3043 92.2923 89.2904C91.3153 89.606 90.224 89.6722 89.1868 89.6752C75.6341 89.6992 62.0784 89.6902 48.5257 89.6902H48.5227ZM48.3875 83.2175C52.446 83.2175 56.5166 83.3769 60.5632 83.1664C63.6177 83.0071 66.7262 82.6794 69.6695 81.8977C75.9528 80.2232 79.9392 75.885 81.1898 69.6318C82.0707 65.2245 82.2 60.6097 82.1699 56.0911C82.1368 50.8901 81.3372 45.7342 78.92 41.0022C78.3278 39.8388 78.6916 39.0872 79.4762 38.1973C80.4322 37.115 81.4334 35.9666 81.9986 34.6648C85.0711 27.5698 83.7212 21.043 79.1004 15.0724C78.5503 14.3629 77.5161 13.4069 76.8727 13.5211C75.6972 13.7285 76.1151 15.1205 76.0911 16.0284C75.9768 20.0449 74.2482 23.1926 71.1005 25.6037C68.2535 27.7833 67.4658 27.7652 64.3001 26.0396C60.1153 23.7578 55.5997 22.4259 50.8647 22.0622C43.8719 21.524 37.321 23.1024 31.3324 26.7791C29.8803 27.669 28.5485 27.6089 27.2407 26.7401C23.9488 24.5514 21.5016 21.7375 20.9153 17.6488C20.756 16.5275 20.6448 15.3971 20.4554 14.2787C20.281 13.2626 19.7669 13.0611 18.9492 13.6534C18.6876 13.8428 18.4561 14.0803 18.2487 14.3268C15.1131 18.0457 13.2281 22.2756 13.2161 27.197C13.204 31.1173 14.0578 34.7881 16.971 37.6682C18.3148 38.997 18.4592 40.3078 17.5843 42.0244C16.7455 43.6719 16.1202 45.4727 15.7023 47.2765C14.0548 54.4166 14.2142 61.674 15.4348 68.796C16.484 74.9079 20.1036 79.3874 26.1765 81.5971C29.273 82.7215 32.4778 83.1123 35.7157 83.1905C39.9366 83.2927 44.1605 83.2145 48.3814 83.2175H48.3875Z" fill="black"/>
<path d="M48.3995 68.3691C39.2481 68.9854 32.2553 60.745 32.3876 52.6098C32.5289 43.6959 39.1549 36.6911 48.4325 36.6641C58.5129 36.637 64.4715 45.0248 64.4023 52.8563C64.3392 60.0054 58.2483 68.8111 48.4025 68.3721L48.3995 68.3691ZM58.5129 47.2134C58.5008 44.7873 56.3062 42.5024 54.0123 42.5295C51.2375 42.5625 49.2923 44.5287 49.2923 47.2976C49.2923 50.0724 51.2194 52.0206 54.0093 52.0656C56.6579 52.1107 58.5279 50.0935 58.5159 47.2134H58.5129Z" fill="black"/>
</svg>
